<mxfile host="app.diagrams.net" agent="Mozilla/5.0 (Windows NT 10.0; Win64; x64) AppleWebKit/537.36 (KHTML, like Gecko) Chrome/133.0.0.0 Safari/537.36 Edg/133.0.0.0" version="26.0.16">
  <diagram name="Страница — 1" id="fPYbnkmeHLSEhD4TcCtU">
    <mxGraphModel grid="1" page="1" gridSize="10" guides="1" tooltips="1" connect="1" arrows="1" fold="1" pageScale="1" pageWidth="827" pageHeight="1169" math="0" shadow="0">
      <root>
        <mxCell id="0" />
        <mxCell id="1" parent="0" />
        <mxCell id="8ekdsbFHcQ6bgOmepVg4-60" style="edgeStyle=orthogonalEdgeStyle;rounded=0;orthogonalLoop=1;jettySize=auto;html=1;exitX=0.75;exitY=0;exitDx=0;exitDy=0;entryX=0.5;entryY=1;entryDx=0;entryDy=0;strokeWidth=2;" edge="1" parent="1" source="8ekdsbFHcQ6bgOmepVg4-58" target="8ekdsbFHcQ6bgOmepVg4-11">
          <mxGeometry relative="1" as="geometry" />
        </mxCell>
        <mxCell id="8ekdsbFHcQ6bgOmepVg4-62" style="edgeStyle=orthogonalEdgeStyle;rounded=0;orthogonalLoop=1;jettySize=auto;html=1;exitX=0.5;exitY=1;exitDx=0;exitDy=0;entryX=0.75;entryY=0;entryDx=0;entryDy=0;strokeWidth=2;" edge="1" parent="1" source="8ekdsbFHcQ6bgOmepVg4-58" target="8ekdsbFHcQ6bgOmepVg4-39">
          <mxGeometry relative="1" as="geometry" />
        </mxCell>
        <mxCell id="8ekdsbFHcQ6bgOmepVg4-58" value="" style="rounded=0;whiteSpace=wrap;html=1;strokeWidth=2;" vertex="1" parent="1">
          <mxGeometry x="-40" y="320" width="840" height="140" as="geometry" />
        </mxCell>
        <mxCell id="8ekdsbFHcQ6bgOmepVg4-15" style="edgeStyle=orthogonalEdgeStyle;rounded=0;orthogonalLoop=1;jettySize=auto;html=1;exitX=0.25;exitY=1;exitDx=0;exitDy=0;entryX=0.25;entryY=0;entryDx=0;entryDy=0;strokeWidth=2;fontStyle=1" edge="1" parent="1" source="8ekdsbFHcQ6bgOmepVg4-5" target="8ekdsbFHcQ6bgOmepVg4-9">
          <mxGeometry relative="1" as="geometry" />
        </mxCell>
        <mxCell id="8ekdsbFHcQ6bgOmepVg4-5" value="Связь&amp;nbsp;" style="rounded=1;whiteSpace=wrap;html=1;strokeWidth=2;fontStyle=1" vertex="1" parent="1">
          <mxGeometry x="280" y="60" width="120" height="60" as="geometry" />
        </mxCell>
        <mxCell id="8ekdsbFHcQ6bgOmepVg4-6" value="&lt;font style=&quot;font-size: 10px;&quot;&gt;CL&lt;/font&gt;" style="ellipse;whiteSpace=wrap;html=1;aspect=fixed;strokeWidth=2;fontStyle=1" vertex="1" parent="1">
          <mxGeometry x="380" y="60" width="20" height="20" as="geometry" />
        </mxCell>
        <mxCell id="8ekdsbFHcQ6bgOmepVg4-27" style="edgeStyle=orthogonalEdgeStyle;rounded=0;orthogonalLoop=1;jettySize=auto;html=1;exitX=1;exitY=0.75;exitDx=0;exitDy=0;entryX=0;entryY=0.75;entryDx=0;entryDy=0;strokeWidth=2;fontStyle=1" edge="1" parent="1" source="8ekdsbFHcQ6bgOmepVg4-7" target="8ekdsbFHcQ6bgOmepVg4-9">
          <mxGeometry relative="1" as="geometry" />
        </mxCell>
        <mxCell id="8ekdsbFHcQ6bgOmepVg4-7" value="Измерение параметров среды" style="rounded=1;whiteSpace=wrap;html=1;verticalAlign=middle;strokeWidth=2;fontStyle=1" vertex="1" parent="1">
          <mxGeometry x="40" y="200" width="120" height="60" as="geometry" />
        </mxCell>
        <mxCell id="8ekdsbFHcQ6bgOmepVg4-8" value="&lt;font style=&quot;font-size: 10px;&quot;&gt;MM&lt;/font&gt;" style="ellipse;whiteSpace=wrap;html=1;aspect=fixed;align=center;verticalAlign=middle;strokeWidth=2;fontStyle=1" vertex="1" parent="1">
          <mxGeometry x="140" y="200" width="20" height="20" as="geometry" />
        </mxCell>
        <mxCell id="8ekdsbFHcQ6bgOmepVg4-16" style="edgeStyle=orthogonalEdgeStyle;rounded=0;orthogonalLoop=1;jettySize=auto;html=1;exitX=0.75;exitY=0;exitDx=0;exitDy=0;entryX=0.75;entryY=1;entryDx=0;entryDy=0;strokeWidth=2;fontStyle=1" edge="1" parent="1" source="8ekdsbFHcQ6bgOmepVg4-9" target="8ekdsbFHcQ6bgOmepVg4-5">
          <mxGeometry relative="1" as="geometry" />
        </mxCell>
        <mxCell id="8ekdsbFHcQ6bgOmepVg4-26" style="edgeStyle=orthogonalEdgeStyle;rounded=0;orthogonalLoop=1;jettySize=auto;html=1;exitX=0;exitY=0.25;exitDx=0;exitDy=0;entryX=1;entryY=0.25;entryDx=0;entryDy=0;strokeWidth=2;fontStyle=1" edge="1" parent="1" source="8ekdsbFHcQ6bgOmepVg4-9" target="8ekdsbFHcQ6bgOmepVg4-7">
          <mxGeometry relative="1" as="geometry" />
        </mxCell>
        <mxCell id="8ekdsbFHcQ6bgOmepVg4-59" style="edgeStyle=orthogonalEdgeStyle;rounded=0;orthogonalLoop=1;jettySize=auto;html=1;exitX=0.5;exitY=1;exitDx=0;exitDy=0;entryX=0.5;entryY=0;entryDx=0;entryDy=0;jumpSize=6;strokeWidth=2;" edge="1" parent="1" source="8ekdsbFHcQ6bgOmepVg4-9" target="8ekdsbFHcQ6bgOmepVg4-58">
          <mxGeometry relative="1" as="geometry" />
        </mxCell>
        <mxCell id="8ekdsbFHcQ6bgOmepVg4-9" value="Центральная система управления" style="rounded=1;whiteSpace=wrap;html=1;strokeWidth=2;fontStyle=1" vertex="1" parent="1">
          <mxGeometry x="280" y="200" width="120" height="60" as="geometry" />
        </mxCell>
        <mxCell id="8ekdsbFHcQ6bgOmepVg4-10" value="&lt;span style=&quot;font-size: 10px;&quot;&gt;CL&lt;/span&gt;" style="ellipse;whiteSpace=wrap;html=1;aspect=fixed;align=center;verticalAlign=middle;strokeWidth=2;fontStyle=1" vertex="1" parent="1">
          <mxGeometry x="380" y="200" width="20" height="20" as="geometry" />
        </mxCell>
        <mxCell id="8ekdsbFHcQ6bgOmepVg4-21" style="edgeStyle=orthogonalEdgeStyle;rounded=0;orthogonalLoop=1;jettySize=auto;html=1;exitX=0;exitY=0.5;exitDx=0;exitDy=0;entryX=1;entryY=0.5;entryDx=0;entryDy=0;strokeWidth=2;fontStyle=1" edge="1" parent="1" source="8ekdsbFHcQ6bgOmepVg4-11" target="8ekdsbFHcQ6bgOmepVg4-9">
          <mxGeometry relative="1" as="geometry" />
        </mxCell>
        <mxCell id="8ekdsbFHcQ6bgOmepVg4-11" value="Самодиагностика" style="rounded=1;whiteSpace=wrap;html=1;verticalAlign=middle;align=center;strokeWidth=2;fontStyle=1" vertex="1" parent="1">
          <mxGeometry x="510" y="200" width="120" height="60" as="geometry" />
        </mxCell>
        <mxCell id="8ekdsbFHcQ6bgOmepVg4-12" value="&lt;font style=&quot;font-size: 10px;&quot;&gt;MM&lt;/font&gt;" style="ellipse;whiteSpace=wrap;html=1;aspect=fixed;align=center;verticalAlign=middle;strokeWidth=2;fontStyle=1" vertex="1" parent="1">
          <mxGeometry x="610" y="200" width="20" height="20" as="geometry" />
        </mxCell>
        <mxCell id="8ekdsbFHcQ6bgOmepVg4-28" value="Перемещение растений и материалов" style="rounded=1;whiteSpace=wrap;html=1;verticalAlign=middle;align=center;strokeWidth=2;fontStyle=1" vertex="1" parent="1">
          <mxGeometry x="320" y="360" width="120" height="60" as="geometry" />
        </mxCell>
        <mxCell id="8ekdsbFHcQ6bgOmepVg4-29" value="&lt;span style=&quot;font-size: 10px;&quot;&gt;CL&lt;/span&gt;" style="ellipse;whiteSpace=wrap;html=1;aspect=fixed;align=center;verticalAlign=middle;strokeWidth=2;fontStyle=1" vertex="1" parent="1">
          <mxGeometry x="420" y="360" width="20" height="20" as="geometry" />
        </mxCell>
        <mxCell id="8ekdsbFHcQ6bgOmepVg4-32" value="Полив и удобрение" style="rounded=1;whiteSpace=wrap;html=1;strokeWidth=2;fontStyle=1" vertex="1" parent="1">
          <mxGeometry x="480" y="360" width="120" height="60" as="geometry" />
        </mxCell>
        <mxCell id="8ekdsbFHcQ6bgOmepVg4-33" value="&lt;span style=&quot;font-size: 10px;&quot;&gt;SM&lt;/span&gt;" style="ellipse;whiteSpace=wrap;html=1;aspect=fixed;align=center;verticalAlign=middle;strokeWidth=2;fontStyle=1" vertex="1" parent="1">
          <mxGeometry x="580" y="360" width="20" height="20" as="geometry" />
        </mxCell>
        <mxCell id="8ekdsbFHcQ6bgOmepVg4-34" value="Мониторинг состояния растений" style="rounded=1;whiteSpace=wrap;html=1;strokeWidth=2;fontStyle=1" vertex="1" parent="1">
          <mxGeometry x="640" y="360" width="120" height="60" as="geometry" />
        </mxCell>
        <mxCell id="8ekdsbFHcQ6bgOmepVg4-35" value="Освещение и климат-контроль" style="rounded=1;whiteSpace=wrap;html=1;strokeWidth=2;fontStyle=1" vertex="1" parent="1">
          <mxGeometry x="160" y="360" width="120" height="60" as="geometry" />
        </mxCell>
        <mxCell id="8ekdsbFHcQ6bgOmepVg4-37" value="Роботизированный сбор урожая" style="rounded=1;whiteSpace=wrap;html=1;strokeWidth=2;fontStyle=1" vertex="1" parent="1">
          <mxGeometry y="360" width="120" height="60" as="geometry" />
        </mxCell>
        <mxCell id="8ekdsbFHcQ6bgOmepVg4-39" value="Приводы&amp;nbsp;" style="rounded=1;whiteSpace=wrap;html=1;strokeWidth=2;fontStyle=1" vertex="1" parent="1">
          <mxGeometry x="290" y="560" width="120" height="60" as="geometry" />
        </mxCell>
        <mxCell id="8ekdsbFHcQ6bgOmepVg4-40" value="&lt;span style=&quot;font-size: 10px;&quot;&gt;SM&lt;/span&gt;" style="ellipse;whiteSpace=wrap;html=1;aspect=fixed;align=center;verticalAlign=middle;strokeWidth=2;fontStyle=1" vertex="1" parent="1">
          <mxGeometry x="260" y="360" width="20" height="20" as="geometry" />
        </mxCell>
        <mxCell id="8ekdsbFHcQ6bgOmepVg4-41" value="&lt;span style=&quot;font-size: 10px;&quot;&gt;SS&lt;/span&gt;" style="ellipse;whiteSpace=wrap;html=1;aspect=fixed;align=center;verticalAlign=middle;strokeWidth=2;fontStyle=1" vertex="1" parent="1">
          <mxGeometry x="100" y="360" width="20" height="20" as="geometry" />
        </mxCell>
        <mxCell id="8ekdsbFHcQ6bgOmepVg4-42" value="&lt;span style=&quot;font-size: 10px;&quot;&gt;MM&lt;/span&gt;" style="ellipse;whiteSpace=wrap;html=1;aspect=fixed;align=center;verticalAlign=middle;strokeWidth=2;fontStyle=1" vertex="1" parent="1">
          <mxGeometry x="740" y="360" width="20" height="20" as="geometry" />
        </mxCell>
        <mxCell id="8ekdsbFHcQ6bgOmepVg4-43" value="&lt;span style=&quot;font-size: 10px;&quot;&gt;MM&lt;/span&gt;" style="ellipse;whiteSpace=wrap;html=1;aspect=fixed;align=center;verticalAlign=middle;strokeWidth=2;fontStyle=1" vertex="1" parent="1">
          <mxGeometry x="390" y="560" width="20" height="20" as="geometry" />
        </mxCell>
        <mxCell id="8ekdsbFHcQ6bgOmepVg4-56" style="edgeStyle=orthogonalEdgeStyle;rounded=0;orthogonalLoop=1;jettySize=auto;html=1;entryX=0.5;entryY=0;entryDx=0;entryDy=0;" edge="1" parent="1" source="8ekdsbFHcQ6bgOmepVg4-55" target="8ekdsbFHcQ6bgOmepVg4-5">
          <mxGeometry relative="1" as="geometry" />
        </mxCell>
        <mxCell id="8ekdsbFHcQ6bgOmepVg4-55" value="Оператор" style="shape=umlActor;verticalLabelPosition=bottom;verticalAlign=top;html=1;outlineConnect=0;" vertex="1" parent="1">
          <mxGeometry x="325" y="-60" width="30" height="60" as="geometry" />
        </mxCell>
        <mxCell id="8ekdsbFHcQ6bgOmepVg4-64" style="edgeStyle=orthogonalEdgeStyle;rounded=0;orthogonalLoop=1;jettySize=auto;html=1;exitX=0;exitY=0.5;exitDx=0;exitDy=0;entryX=0.318;entryY=0.986;entryDx=0;entryDy=0;entryPerimeter=0;strokeWidth=2;" edge="1" parent="1" source="8ekdsbFHcQ6bgOmepVg4-39" target="8ekdsbFHcQ6bgOmepVg4-58">
          <mxGeometry relative="1" as="geometry">
            <Array as="points">
              <mxPoint x="227" y="590" />
            </Array>
          </mxGeometry>
        </mxCell>
      </root>
    </mxGraphModel>
  </diagram>
</mxfile>
